<?xml version="1.0" encoding="UTF-8" ?>
<!DOCTYPE svg PUBLIC "-//W3C//DTD SVG 1.1//EN" "http://www.w3.org/Graphics/SVG/1.1/DTD/svg11.dtd">
<svg width="554pt" height="250pt" viewBox="0 0 554 250" version="1.1" xmlns="http://www.w3.org/2000/svg">
<g id="#017bbcff">
</g>
<g id="#fefefeff">
<path fill="#fefefe" opacity="1.00" d=" M 329.30 65.50 C 338.00 65.54 346.70 65.48 355.41 65.51 C 355.33 87.96 355.41 110.41 355.33 132.85 C 359.28 132.72 363.22 132.99 367.17 133.03 C 369.18 132.29 370.42 130.39 371.94 128.98 C 376.44 124.48 380.66 119.69 385.25 115.26 C 383.89 115.09 382.53 114.92 381.18 114.76 C 381.23 110.69 380.64 106.63 381.10 102.57 C 390.48 102.60 399.87 102.52 409.26 102.60 C 409.26 106.63 409.25 110.66 409.35 114.69 C 406.09 115.45 402.72 114.89 399.46 115.42 C 391.94 122.84 384.67 130.52 377.38 138.16 C 385.46 146.63 393.22 155.40 401.44 163.72 C 404.21 165.01 407.63 164.06 410.66 164.32 C 410.66 168.40 410.66 172.49 410.66 176.57 C 405.38 176.57 400.10 176.66 394.82 176.50 C 386.76 167.45 378.50 158.58 370.41 149.56 C 368.48 147.61 366.86 145.31 364.61 143.73 C 361.54 143.44 358.44 143.65 355.36 143.61 C 355.35 150.51 355.37 157.40 355.37 164.30 C 357.38 164.30 359.39 164.32 361.41 164.33 C 361.40 168.41 361.41 172.48 361.41 176.56 C 350.79 176.58 340.16 176.64 329.53 176.53 C 329.57 172.48 329.58 168.42 329.54 164.37 C 333.57 164.29 337.60 164.28 341.63 164.32 C 341.68 135.47 341.71 106.62 341.61 77.78 C 337.50 77.81 333.40 77.81 329.29 77.80 C 329.28 73.70 329.29 69.60 329.30 65.50 Z" />
<path fill="#fefefe" opacity="1.00" d=" M 268.10 68.87 C 277.16 66.38 287.04 65.76 296.01 68.97 C 303.87 71.70 310.67 77.69 313.97 85.39 C 315.81 85.45 317.66 85.49 319.51 85.54 C 319.52 89.62 319.51 93.71 319.53 97.80 C 313.82 97.80 308.12 97.84 302.41 97.77 C 301.74 93.40 301.09 88.53 297.43 85.53 C 289.41 78.92 277.42 78.53 268.40 83.31 C 264.30 85.45 261.72 89.54 260.67 93.95 C 260.69 95.30 260.70 96.65 260.69 98.00 C 261.59 101.43 262.87 105.03 265.88 107.19 C 271.08 110.96 277.52 112.25 283.48 114.36 C 292.38 117.41 301.86 119.72 309.44 125.58 C 315.50 130.58 318.56 138.25 319.19 145.94 C 319.19 146.69 319.20 148.19 319.21 148.93 C 318.30 156.63 315.13 164.11 309.45 169.49 C 302.46 175.57 293.18 178.67 283.98 178.78 C 275.18 179.14 265.81 177.80 258.58 172.42 C 253.42 168.55 249.44 162.96 248.00 156.63 C 246.11 156.52 244.23 156.43 242.35 156.35 C 242.35 152.28 242.35 148.21 242.32 144.14 C 248.36 144.11 254.41 144.03 260.45 144.20 C 260.11 149.46 260.75 155.34 264.87 159.11 C 270.91 165.15 280.10 165.31 288.05 164.67 C 294.83 164.04 301.23 159.75 303.44 153.16 C 304.27 147.42 303.64 141.04 298.89 137.09 C 287.09 127.78 270.79 128.60 258.28 120.73 C 252.71 116.87 247.45 111.08 247.27 103.95 C 247.07 104.65 246.86 105.35 246.66 106.05 C 246.30 100.71 246.06 95.33 246.65 90.00 C 247.00 88.89 247.36 87.78 247.74 86.67 C 247.85 86.55 248.07 86.32 248.18 86.20 C 251.03 77.28 259.54 71.57 268.10 68.87 Z" />
<path fill="#fefefe" opacity="1.00" d=" M 18.15 68.21 C 33.11 68.25 48.07 68.30 63.03 68.32 C 67.08 68.38 71.22 68.33 75.14 69.53 C 84.86 72.07 93.17 79.58 96.46 89.11 C 98.82 95.80 99.41 103.59 96.07 110.06 C 93.59 115.26 88.94 119.04 83.90 121.63 C 87.65 124.74 92.12 127.18 94.75 131.44 C 102.58 142.73 98.56 158.92 89.02 167.93 C 83.40 173.32 75.73 176.48 67.93 176.51 C 51.33 176.70 34.73 176.52 18.13 176.60 C 18.11 172.50 18.11 168.41 18.16 164.32 C 21.56 164.30 24.96 164.30 28.36 164.32 C 28.34 136.44 28.38 108.57 28.34 80.69 C 24.94 80.68 21.53 80.67 18.13 80.65 C 18.11 76.50 18.11 72.35 18.15 68.21 M 42.41 80.66 C 42.35 92.40 42.44 104.15 42.37 115.89 C 50.60 115.90 58.82 115.94 67.05 115.92 C 74.87 116.11 81.85 109.51 82.93 101.90 C 84.32 92.27 77.16 81.30 66.97 80.74 C 58.79 80.54 50.60 80.74 42.41 80.66 M 42.40 128.47 C 42.40 140.42 42.33 152.38 42.45 164.33 C 50.27 164.26 58.08 164.36 65.90 164.31 C 79.75 165.11 88.81 146.18 80.55 135.47 C 77.51 131.16 72.40 128.42 67.10 128.48 C 58.87 128.41 50.63 128.51 42.40 128.47 Z" />
<path fill="#fefefe" opacity="1.00" d=" M 124.28 68.30 C 130.20 65.05 138.29 70.17 137.65 76.95 C 137.59 83.68 129.09 88.37 123.54 84.38 C 117.69 80.90 118.01 71.16 124.28 68.30 Z" />
<path fill="#fefefe" opacity="1.00" d=" M 514.21 68.30 C 519.47 65.48 526.61 69.06 527.43 74.97 C 528.93 81.96 520.58 88.49 514.27 84.83 C 507.72 81.80 507.60 71.33 514.21 68.30 Z" />
<path fill="#fefefe" opacity="1.00" d=" M 424.05 108.89 C 435.10 102.13 448.74 99.29 461.45 102.33 C 467.95 103.99 473.73 108.64 476.12 114.99 C 478.88 121.65 478.28 128.99 478.33 136.04 C 478.35 145.47 478.22 154.91 478.36 164.35 C 481.05 164.31 483.75 164.31 486.46 164.31 C 486.45 168.39 486.43 172.48 486.47 176.56 C 479.22 176.56 471.98 176.69 464.73 176.50 C 464.75 174.30 464.77 172.11 464.81 169.92 C 459.80 174.36 453.70 178.00 446.87 178.46 C 438.32 179.37 428.98 176.40 423.64 169.40 C 416.31 160.22 418.68 145.04 428.66 138.71 C 439.33 131.74 452.74 132.58 464.84 133.99 C 464.69 128.80 465.63 122.99 462.42 118.48 C 458.58 113.08 451.18 112.10 445.08 113.02 C 439.20 113.51 433.58 115.45 428.32 118.03 C 426.88 114.98 425.46 111.94 424.05 108.89 M 443.37 143.63 C 439.39 144.45 435.43 146.66 433.56 150.41 C 430.82 155.38 432.30 162.69 437.68 165.24 C 446.64 169.93 457.89 166.61 464.78 159.75 C 464.77 154.10 464.84 148.46 464.78 142.81 C 457.64 142.92 450.43 142.29 443.37 143.63 Z" />
<path fill="#fefefe" opacity="1.00" d=" M 184.12 102.00 C 193.65 100.11 204.08 100.64 212.42 106.09 C 212.43 105.22 212.45 103.47 212.46 102.60 C 216.86 102.57 221.26 102.57 225.66 102.58 C 225.72 130.29 225.91 158.07 225.51 185.74 C 225.13 183.11 224.92 180.45 224.51 177.82 C 225.98 187.99 221.04 198.75 212.37 204.27 C 206.59 207.94 199.64 208.82 192.95 209.26 C 181.30 209.31 169.32 206.30 159.98 199.09 C 162.27 195.40 164.81 191.87 167.09 188.18 C 176.21 195.28 188.46 198.21 199.76 195.67 C 202.69 195.08 205.08 193.24 207.39 191.46 C 211.85 185.43 212.23 177.73 212.47 170.52 C 208.35 173.82 203.79 176.84 198.48 177.73 C 190.13 179.05 181.22 177.50 174.02 173.00 C 166.37 168.09 161.21 159.84 159.27 151.03 C 156.72 139.87 157.47 127.54 163.25 117.46 C 167.60 109.65 175.41 103.97 184.12 102.00 M 173.08 128.89 C 170.96 136.78 171.28 145.37 174.21 153.01 C 176.41 158.75 181.13 163.55 187.05 165.43 C 195.79 168.11 206.15 166.08 212.43 159.16 C 212.41 145.68 212.40 132.20 212.44 118.71 C 205.71 113.35 196.34 111.21 188.02 113.53 C 180.73 115.43 175.03 121.72 173.08 128.89 Z" />
<path fill="#fefefe" opacity="1.00" d=" M 110.76 102.62 C 118.76 102.49 126.76 102.68 134.76 102.49 C 134.97 103.99 135.24 105.49 135.27 107.01 C 135.25 126.12 135.23 145.23 135.28 164.33 C 138.96 164.28 142.64 164.29 146.32 164.38 C 146.28 168.42 146.27 172.47 146.31 176.51 C 134.65 176.69 122.99 176.52 111.32 176.60 C 111.05 172.49 110.30 168.31 111.36 164.24 C 114.77 164.31 118.18 164.32 121.59 164.33 C 121.67 147.94 121.55 131.55 121.66 115.16 C 118.01 115.25 114.36 115.22 110.73 114.80 C 110.73 110.74 110.73 106.68 110.76 102.62 Z" />
<path fill="#fefefe" opacity="1.00" d=" M 500.76 102.62 C 508.78 102.51 516.80 102.60 524.82 102.56 C 525.39 107.69 525.12 112.84 525.16 117.98 C 525.19 133.43 525.12 148.88 525.20 164.33 C 528.85 164.29 532.51 164.31 536.17 164.32 C 536.12 168.37 536.14 172.42 536.22 176.48 C 524.54 176.64 512.84 176.69 501.16 176.48 C 500.34 172.61 501.07 168.47 500.74 164.50 C 504.33 164.29 507.93 164.24 511.53 164.34 C 511.66 147.97 511.49 131.60 511.61 115.22 C 507.99 114.92 504.35 114.79 500.72 114.77 C 500.72 110.72 500.72 106.67 500.76 102.62 Z" />
</g>
</svg>
